<svg xmlns="http://www.w3.org/2000/svg" viewBox="0 0 48 48" fill="#CC0000">
    <path d="M19.6 41.3L17.3 38 15 34.8c-.6-.7-1.2-1.5-1.7-2.2l-3.7-4.9-2.3-3.3c-2.9-4.5-5.1-9.8-4-15.5.6-3.3 2.6-6.8 5.9-8.1 3.1-1.3 6.6-.8 9.2 1.4 2.3 1.9 3.4 4.6 4.1 7.3.3.5.6 1.5 1.5 1.5s1.2-.9 1.5-1.6c.9-3.8 3.4-8 7.5-9.1 3.5-.9 7.1.3 9.3 3.1 3.3 4.2 3.3 10.7 1.2 15.5-1.5 3.3-3.4 6.4-5.7 9.2l-2.5 3.3c-.2.2-.4.5-.6.7-.2.2-.4.5-.5.8s-.2.4-.4.5c0 .1-.2.2-.2.3l-2.8 3.7-1.3 1.7-2.2 3.3-2.2 3.3-1.3 2.3c-.5-.8-1.1-1.6-1.5-2.5l-2.7-4.2z"/>
</svg> 